<svg xmlns="http://www.w3.org/2000/svg" viewBox="0 0 720 540">
  <defs><linearGradient id="g" x1="0" x2="1"><stop stop-color="#fff9ec"/><stop offset="1" stop-color="#f0d99d"/></linearGradient><filter id="s"><feDropShadow dx="0" dy="20" stdDeviation="18" flood-color="#003f2d" flood-opacity=".22"/></filter></defs>
  <rect width="720" height="540" rx="42" fill="#064e3b"/>
  <g filter="url(#s)"><rect x="116" y="86" width="212" height="338" rx="26" fill="url(#g)" stroke="#e5b75a" stroke-width="8"/><rect x="392" y="116" width="212" height="338" rx="26" fill="url(#g)" stroke="#e5b75a" stroke-width="8"/></g>
  <g fill="#064e3b"><text x="222" y="178" text-anchor="middle" font-family="Georgia" font-size="34" font-weight="700">HUONG SEN</text><text x="498" y="208" text-anchor="middle" font-family="Georgia" font-size="34" font-weight="700">SUMMER FEST</text></g>
  <path d="M222 230c22 35 45 53 86 58-37 13-62 6-86-25-23 31-49 38-86 25 42-5 65-23 86-58zM498 262c22 35 45 53 86 58-37 13-62 6-86-25-23 31-49 38-86 25 42-5 65-23 86-58z" fill="#c88a1a"/>
</svg>
