<svg xmlns="http://www.w3.org/2000/svg" viewBox="0 0 720 540">
  <defs><radialGradient id="bg" cx="50%" cy="40%" r="62%"><stop stop-color="#fff9ec"/><stop offset="1" stop-color="#ecd39b"/></radialGradient><filter id="s"><feDropShadow dx="0" dy="24" stdDeviation="20" flood-color="#003f2d" flood-opacity=".24"/></filter></defs>
  <rect width="720" height="540" rx="42" fill="url(#bg)"/><path d="M360 76c30 51 66 80 126 88-58 18-94 7-126-38-32 45-68 56-126 38 60-8 96-37 126-88z" fill="#064e3b" opacity=".16"/>
  <g filter="url(#s)"><ellipse cx="360" cy="326" rx="238" ry="80" fill="#fff6e3" stroke="#c88a1a" stroke-width="10"/><path d="M216 284c82-72 210-74 306-6-78 70-212 82-306 6z" fill="#c18a45"/><path d="M256 276c64-30 148-30 220 0" stroke="#fff1cf" stroke-width="13" stroke-linecap="round" opacity=".8"/><path d="M518 278l70-38c-7 36-26 61-70 38z" fill="#c18a45"/><circle cx="472" cy="272" r="12" fill="#063c2d"/></g>
</svg>
