<svg xmlns="http://www.w3.org/2000/svg" viewBox="0 0 720 540">
  <defs><radialGradient id="bg" cx="50%" cy="42%" r="58%"><stop stop-color="#fff9ec"/><stop offset="1" stop-color="#efd18d"/></radialGradient><filter id="s"><feDropShadow dx="0" dy="24" stdDeviation="20" flood-color="#003f2d" flood-opacity=".24"/></filter></defs>
  <rect width="720" height="540" rx="42" fill="url(#bg)"/><ellipse cx="360" cy="318" rx="250" ry="86" fill="#064e3b" opacity=".14"/>
  <g filter="url(#s)"><ellipse cx="360" cy="292" rx="234" ry="74" fill="#fff6e3" stroke="#c88a1a" stroke-width="10"/><g fill="#8a4b19"><rect x="190" y="216" width="142" height="58" rx="28" transform="rotate(-10 261 245)"/><rect x="305" y="200" width="156" height="62" rx="30" transform="rotate(7 383 231)"/><rect x="390" y="260" width="150" height="56" rx="28" transform="rotate(-8 465 288)"/></g><g stroke="#e5b75a" stroke-width="8" stroke-linecap="round"><path d="M220 237c38 9 63 2 92-17"/><path d="M336 219c46 14 79 11 112-5"/><path d="M420 278c37 10 71 6 105-11"/></g></g>
  <path d="M360 88c38 60 76 92 148 100-66 22-108 10-148-45-40 55-82 67-148 45 72-8 110-40 148-100z" fill="#064e3b" opacity=".22"/>
</svg>
